<?xml version="1.0" encoding="utf-8"?>
<!-- Svg Vector Icons : http://www.onlinewebfonts.com/icon -->
<!DOCTYPE svg PUBLIC "-//W3C//DTD SVG 1.1//EN" "http://www.w3.org/Graphics/SVG/1.1/DTD/svg11.dtd">
<svg version="1.1" xmlns="http://www.w3.org/2000/svg" xmlns:xlink="http://www.w3.org/1999/xlink" x="0px" y="0px" viewBox="0 0 1000 1000" enable-background="new 0 0 1000 1000" xml:space="preserve">
<metadata> Svg Vector Icons : http://www.onlinewebfonts.com/icon </metadata>
<g><path d="M10,109.6c6.3-0.4,12.7-1.1,19-1.1c204-0.1,408.1,0,612.1,0c6.8,0,13.7,0,21.6,0c0,44,0,85.8,0,129.1c-20.8,0-41.4,0-64.1,0c0-20.6,0-40.7,0-62.1c-175.1,0-348.1,0-522.2,0c0,216.2,0,432.1,0,649.5c173.2,0,346.2,0,521.7,0c0-20.7,0-41.4,0-63c22.7,0,42.8,0,64.3,0c0,42.9,0,85.2,0,128.6c-6.4,0.4-12,1-17.6,1c-206.6,0.1-413.2,0.1-619.8,0c-5.1,0-10.1-0.7-15.2-1.1C10,630.2,10,369.9,10,109.6z"/><path d="M427.2,247.2c0,35.3,0,73.9,0,111.8c48.7,3.7,95.9,5.4,142.4,11.3c107.7,13.7,209.6,44,295,114.9c70.6,58.7,112.4,134,124.5,225.3c0.6,4.4,0.5,8.8,0.9,16.4c-11.2-16.2-19.7-30.7-30.2-43.6c-43.2-52.9-101.4-79.6-166.7-93.1c-123.2-25.4-244.4-10.1-366.7,17.4c0,40.6,0,79.7,0,123.9C337.7,653,252.5,577.6,168.3,503C255,417.4,341.3,332.2,427.2,247.2z"/></g>
</svg>